# xmcd
#
# Track frame offsets:
#	150
#	5715
#	28632
#	46910
#	66428
#	86150
#	105433
#	125488
#	135012
#	152549
#	175068
#	191504
#	210170
#	229122
#	248515
#	253686
#	276789
#
# Disc length: 3838 seconds
#
# Revision: 0
# Processed by: cddbd v1.5.1PL2 Copyright (c) Steve Scherf et al.
# Submitted via: EasyCDDAExtractor 8.1.2.3
#
DISCID=d60efc11
DTITLE=Busta Flex - La pièce maîtresse
DYEAR=2006
DGENRE=Rap
TTITLE0=Intro
TTITLE1=Hip-hop (feat Nayobé)
TTITLE2=Sauvage
TTITLE3=Quoi de neuf ?
TTITLE4=Flex fonk
TTITLE5=Missile flow (feat Djam-C)
TTITLE6=J'me fais rare
TTITLE7=Interlude Jimi Hilife
TTITLE8=Rowsfav (Bang bang)
TTITLE9=Mon éternelle (feat Trade Unio
TTITLE10=J'aime bien ton boule
TTITLE11=Les traîtres
TTITLE12=N'appelle pas la police
TTITLE13=Non stop
TTITLE14=Interlude James
TTITLE15=Puff puff pass
TTITLE16=Outro
EXTD=
EXTT0=
EXTT1=
EXTT2=
EXTT3=
EXTT4=
EXTT5=
EXTT6=
EXTT7=
EXTT8=
EXTT9=
EXTT10=
EXTT11=
EXTT12=
EXTT13=
EXTT14=
EXTT15=
EXTT16=
PLAYORDER=
